<?xml version="1.0" encoding="UTF-8" standalone="no"?>
<svg
   xmlns:dc="http://purl.org/dc/elements/1.1/"
   xmlns:cc="http://creativecommons.org/ns#"
   xmlns:rdf="http://www.w3.org/1999/02/22-rdf-syntax-ns#"
   xmlns:svg="http://www.w3.org/2000/svg"
   xmlns="http://www.w3.org/2000/svg"
   viewBox="0 0 179.60001 158.33333"
   height="158.33333"
   width="179.60001"
   xml:space="preserve"
   id="svg2"
   version="1.1"><metadata
     id="metadata8"><rdf:RDF><cc:Work
         rdf:about=""><dc:format>image/svg+xml</dc:format><dc:type
           rdf:resource="http://purl.org/dc/dcmitype/StillImage" /></cc:Work></rdf:RDF></metadata><defs
     id="defs6" /><g
     transform="matrix(1.3333333,0,0,-1.3333333,0,158.33333)"
     id="g10"><g
       transform="scale(0.1)"
       id="g12"><path
         id="path14"
         style="fill:#a9138e;fill-opacity:1;fill-rule:nonzero;stroke:none"
         d="M 674.18,21.8594 C 674.18,21.8594 20,308.66 20,762.18 20,1215.69 504.02,1317.1 673.184,919.008 834.57,1301.23 1326.97,1218.44 1326.97,764.934 1326.97,311.422 674.18,21.8594 674.18,21.8594 Z M 1063.38,1175.21 C 933.137,1201.58 766.953,1145.68 673.18,965.957 588.684,1128.74 440.254,1212.38 285.59,1180.93 153.848,1154.1 0,1028.32 0,762.18 0,300.898 638.949,15.4609 666.148,3.53906 L 674.23,0 682.289,3.57031 C 709.43,15.6094 1346.97,303.715 1346.97,764.934 c 0,260.446 -152.77,383.796 -283.59,410.276" /><path
         id="path16"
         style="fill:#5face3;fill-opacity:1;fill-rule:evenodd;stroke:none"
         d="M 673.184,918.203 C 504.02,1316.29 20,1214.88 20,761.367 20,307.855 674.18,21.0508 674.18,21.0508 c 0,0 652.79,289.5582 652.79,743.0742 0,453.515 -492.4,536.285 -653.786,154.078" /></g></g></svg>